<?xml version="1.0" encoding="UTF-8"?>
<!DOCTYPE svg PUBLIC "-//W3C//DTD SVG 1.1//EN" "http://www.w3.org/Graphics/SVG/1.1/DTD/svg11.dtd">
<!-- Creator: CorelDRAW X7 -->
<svg xmlns="http://www.w3.org/2000/svg" xml:space="preserve" width="210mm" height="297mm" version="1.1" style="shape-rendering:geometricPrecision; text-rendering:geometricPrecision; image-rendering:optimizeQuality; fill-rule:evenodd; clip-rule:evenodd"
viewBox="0 0 21000 29700"
 xmlns:xlink="http://www.w3.org/1999/xlink">
 <defs>
  <style type="text/css">
   <![CDATA[
    .fil0 {fill:black}
   ]]>
  </style>
 </defs>
 <g id="Слой_x0020_1">
  <metadata id="CorelCorpID_0Corel-Layer"/>
  <path class="fil0" d="M3204 2401c19,7 20,11 31,23 30,34 41,12 43,68 0,18 4,33 2,53 -22,-12 -44,-33 -58,-55 -28,-45 -20,-28 -18,-89zm-1545 -1006l-17 17 11 17 21 -10c2,-28 -17,-12 14,-37 -3,-10 -6,-6 -5,-14 1,-10 0,-1 3,-7 6,-9 1,4 4,-6 -10,0 -19,8 -28,15 -22,15 -7,15 -3,25zm-560 467c-5,10 -16,13 -15,29 13,-4 9,-12 26,-5 11,24 -9,22 -15,37 9,5 53,-6 38,-53 -4,-13 -10,-1 -30,-13 -3,-13 2,-15 5,-25 -54,-1 -57,49 -9,30zm-277 682c-1,-19 2,-31 3,-50 1,-25 -3,-30 12,-44 8,-8 20,-15 29,-24 13,-13 10,-16 33,-25 2,59 10,47 -19,90 -8,13 -14,21 -26,30 -7,6 -24,20 -32,23zm2647 -172c5,-1 53,1 57,3 17,6 10,30 16,45l24 37c13,17 12,30 20,42 7,9 8,5 14,18 15,31 21,33 8,73 -5,16 -21,20 -14,47 5,18 17,24 16,47 -37,22 -32,-27 -41,-38 -15,-19 -24,-37 -28,-66 -5,-38 29,-21 -4,-93 -18,-39 -27,-38 -39,-57 -24,-41 -42,-27 -29,-58zm-2976 312c-2,-28 21,-37 16,-66 -2,-13 -5,-11 -11,-18 -6,-9 -3,-9 -7,-22 -4,-11 -2,-9 -2,-20 -1,-18 -3,-11 4,-22 5,-7 6,-11 10,-19 9,-19 12,-8 20,-36 9,-29 37,-47 41,-71 8,-48 1,-31 52,-38 23,-4 21,1 20,24 -37,27 -21,24 -54,61 -12,13 -35,60 -31,85 1,8 26,29 -6,90 -5,9 -11,11 -14,18l-2 9c-3,22 -11,41 -36,25zm3137 -375c27,-2 28,3 47,13 27,14 47,31 59,62 5,14 -4,0 9,21 4,6 6,15 8,23 20,65 29,78 69,113 8,7 27,26 27,35 -31,31 -89,-51 -90,-53l-32 -30c-25,-24 -30,5 -58,-34 -10,-13 -10,-31 -13,-49 -2,-10 -2,-19 -4,-27 -6,-32 -28,-28 -22,-74zm-3157 2c3,23 -2,32 -11,48 -5,9 -8,8 -11,20 -4,16 -4,60 -15,77 -25,40 -40,17 -58,34 -34,30 -96,116 -122,88 -8,-7 1,-13 7,-18 5,-6 9,-11 14,-16 38,-38 45,-30 71,-114 7,-22 27,-66 41,-83 10,-12 23,-18 36,-25 16,-9 27,-18 48,-11zm3244 -24c30,-19 60,-10 71,10 21,36 17,36 67,40 0,21 -11,28 -33,25 -24,-3 -24,-11 -41,-19 -14,-6 -29,-6 -44,-14 -12,-7 -21,-25 -20,-42zm-3468 49c49,-3 46,-4 65,-38 6,-11 17,-18 31,-21 18,-4 27,1 40,9 1,16 -5,33 -18,42 -14,9 -31,9 -46,16 -17,7 -17,15 -41,18 -20,3 -36,-5 -31,-26zm3058 -13c4,6 2,4 8,7 25,17 20,20 38,38 6,6 11,8 16,14 15,18 14,77 17,106 14,146 0,92 -3,163 -1,18 6,47 2,57 -17,21 -35,-3 -42,-16 -15,-28 -24,-90 -20,-127l4 -52c1,-7 3,-6 4,-16 0,-31 -42,-76 -58,-91 -13,-11 -32,-18 -47,-29 0,0 -46,-44 -52,-14l-2 57c-3,30 -11,31 1,61 13,32 4,29 -4,54 -9,28 5,27 -24,46 -33,-16 -12,-22 -27,-48 -9,-16 -6,-49 -7,-70 -1,-24 -6,-46 -7,-69 -1,-25 2,-51 1,-76 0,-17 -18,-64 -25,-86 -4,-11 -9,-17 -9,-32 1,-18 14,-45 23,-54 13,-12 46,-13 68,-10 42,5 47,37 61,51 7,7 4,1 9,11 5,9 -2,4 9,10 20,13 35,14 61,14 41,0 32,1 64,13 24,9 30,13 39,36 7,18 13,40 7,63 -12,44 -85,-46 -105,-11zm-2381 33c-23,-9 -36,12 -48,20 -15,11 -31,17 -45,28 -18,14 -56,56 -61,88 -2,14 4,16 5,30 2,28 6,81 1,105 -6,30 -19,102 -57,86 -14,-10 6,-38 -8,-106 -6,-27 5,-203 19,-222 4,-7 10,-10 16,-15 11,-11 17,-26 37,-38 11,-7 4,2 10,-9 -18,-32 -65,31 -95,22 -19,-6 -16,-79 15,-100 11,-7 22,-10 33,-15 37,-17 51,-1 84,-9 37,-9 38,-24 41,-28 5,-6 7,-6 13,-13 17,-25 25,-53 95,-44 18,2 25,5 32,16 47,73 -17,90 -16,183 1,70 -5,107 -7,179 0,22 -8,13 -11,33 -3,14 -2,29 -18,31 -23,5 -22,-24 -35,-58 -11,-29 15,-41 8,-76 -7,-38 0,-76 -8,-88zm746 -283c0,34 1,66 4,100 3,30 11,63 12,91l-79 0c-2,-30 2,-60 11,-87 9,-24 -2,-2 -1,-23 1,-15 5,-44 13,-52 5,-7 28,-25 40,-29zm-120 143c-1,-15 6,-25 10,-38 -18,3 -38,17 -54,25 -13,6 -44,17 -58,20l8 -29c-22,8 -33,39 -61,33 -10,-2 -9,-8 -14,-15 -19,2 -20,12 -37,10 0,-19 77,-154 90,-167l7 17c21,0 20,-15 42,-13 5,13 2,30 2,45 18,-1 29,-36 51,-34l0 30c20,-6 32,-33 47,-34 10,0 10,7 13,13l20 -7c-3,30 -11,60 -16,90 -5,30 -15,38 -50,54zm1428 48l-76 0c2,-20 12,-16 30,-17 0,-36 13,-34 19,-38 6,-3 3,-3 11,-8 -3,-18 -11,-26 5,-32l9 -2c1,0 2,0 2,-1 -7,-24 -2,-24 13,-39l-7 -28 20 -2c-1,-8 -6,-21 -5,-25 2,-13 7,-8 18,-15l3 -38 9 17c10,-10 10,-32 14,-46 6,-2 9,23 15,-24 12,6 42,41 52,52 11,11 46,43 50,56 -46,22 -52,16 -87,50 -61,62 -56,71 -95,140zm-590 -222c20,11 41,9 63,18 1,20 -6,5 -10,20l45 7c2,17 -3,7 -9,18 10,5 8,0 9,14 1,10 -3,12 2,22 5,-10 4,-18 5,-31 43,3 31,-3 47,-7 -5,14 -15,10 -18,23 19,5 35,3 50,-4 10,-4 10,-5 17,-11 8,-8 9,-8 20,-9l0 35c13,1 18,-9 30,-13l6 9c2,4 1,5 5,10l17 0c-2,-16 -14,-26 -8,-38 3,-6 5,-8 9,-16 3,-8 3,-13 10,-17l3 23c21,-6 26,-26 42,-40 10,7 91,147 100,170 -10,-3 -19,-12 -27,-17 -10,3 -3,4 -14,6l-30 -57c-5,-10 -4,-14 -17,-12 10,21 46,77 48,97 -24,-3 -13,-11 -20,-28 -19,-6 -5,3 -24,-10 -1,6 -1,14 -5,19 -15,-8 -27,-30 -42,-36 -8,11 -3,12 -14,21 -23,-6 -24,-29 -40,-40l-5 21c-31,1 -31,-21 -49,-37l-5 8c-4,7 4,0 -5,7 -14,-6 -25,-23 -38,-22 5,8 21,44 23,54 -33,-5 -30,-14 -49,-32 2,11 5,15 7,26 -15,-4 -36,-20 -45,-31 -2,27 13,41 25,54l30 29c9,9 7,0 9,14 -8,5 -7,2 -16,3l-72 2c-14,-1 5,-10 -39,-8l-3 8 -306 0c5,-7 16,-17 21,-21 20,-12 13,6 35,-5 22,-11 33,-25 52,-35 21,-10 102,-53 85,-80 -7,0 -46,32 -73,47 -78,43 -173,28 -248,-12 -13,-6 -27,-17 -38,-21 -1,46 71,61 117,91 32,21 8,-10 43,20l0 15c-32,3 -205,1 -251,1 -21,0 -3,-5 -25,-5 -25,0 -19,5 -37,5l-76 -1c-7,-22 -26,-169 -24,-198l18 -9c0,15 -5,15 -8,29 15,-5 80,-58 92,-62 1,0 1,0 2,0 0,0 1,0 2,-1l4 0c17,-1 5,-9 24,-16l5 18c19,-12 22,-46 55,-55 9,-3 22,-4 30,-10 2,-2 1,-3 6,-7 8,-5 29,-16 40,-15 38,6 36,30 80,32 28,1 78,-2 102,-11 32,-12 74,-64 111,-27 16,15 10,14 34,22 12,4 27,11 39,14 23,6 23,3 34,22 8,13 16,19 32,25 31,11 9,16 5,28zm992 -120c44,1 31,1 55,23l81 71c7,6 12,11 19,17 8,6 16,11 21,19 -33,-4 -59,-14 -99,-16 -69,-5 -36,1 -64,-18 -9,-6 -11,-4 -17,-11 11,-16 22,-9 32,-23l-14 -7c-6,-2 -12,-3 -16,-5 11,-8 25,-1 40,-10 -1,-12 -7,-13 -16,-20 -5,-4 -6,-5 -11,-9l-7 -8c-1,0 -2,-1 -2,-1 0,-1 -1,-2 -2,-2zm-539 -38c14,4 13,18 23,20l3 -79c3,-2 3,-1 6,-2l7 -1 0 -25c11,7 65,58 81,72 11,10 7,6 12,19 4,8 20,27 27,37 -2,10 -2,3 -3,6l-1 4c-4,12 1,34 0,57 -6,-12 -15,-28 -23,-35l4 36c-12,3 -15,-10 -16,22 -1,13 2,32 -2,43 -10,0 -5,-5 -21,-8 0,24 9,36 7,58 -16,-2 -10,-7 -27,-10 1,23 14,40 12,57 -11,-5 -13,-11 -29,-14 1,17 7,18 8,35 -15,-4 -21,-13 -33,-14l1 38c-21,3 -25,-15 -47,-17l-2 32c-3,-12 -39,-64 -47,-84 -32,-70 -78,-87 -22,-105 25,-8 33,-15 48,-53 6,-15 4,-23 6,-30 4,-14 1,-5 5,-10l7 36c16,-27 17,-59 16,-85zm-861 19c7,-9 10,-15 18,-24 13,-16 15,5 27,-18 5,7 1,8 9,15 30,1 5,-52 44,-44 16,3 27,49 43,11l2 -4c13,17 9,32 31,45 0,0 25,-10 39,-1 -4,12 -1,3 -22,15 -52,30 -24,27 -79,38 -29,6 -38,8 -68,2 -41,-9 -27,-14 -39,-29 0,0 -2,-2 -3,-3l-2 -3zm1175 -145c4,-6 2,-8 5,-14 12,5 102,56 112,67 12,12 -3,1 22,23 9,9 4,1 7,10 -8,7 -18,10 -24,20 6,17 26,23 35,42 -9,5 -12,1 -23,8 -1,17 21,33 33,42 -6,19 -26,19 -32,37 13,16 38,16 34,41 -15,10 -47,11 -69,14 -27,5 -47,14 -70,18 -15,-12 -72,-75 -101,-100 -10,-9 -29,-22 -32,-39 16,4 21,11 37,11 1,-15 -40,-57 4,-52 11,2 6,4 18,2 8,-30 -19,-40 -14,-66 17,-4 23,4 33,1 13,-28 -54,-104 25,-65zm-2163 -42l27 7c-6,12 -16,17 -16,36 12,-1 20,-4 29,2 -3,9 -26,18 -39,26 -84,49 -176,108 -247,171 -12,10 -26,23 -38,31 11,-21 2,-8 1,-20 10,-8 38,-28 39,-36 -3,6 -46,23 -61,25 8,-23 25,-24 28,-43 1,-11 2,-7 4,-18 -11,-7 -6,1 -10,-8 8,-11 27,-20 28,-30l-42 1c6,-35 287,-174 315,-173 0,11 1,10 -5,17 -10,8 -7,-1 -13,12zm282 -20c6,4 6,2 13,5 7,41 -25,78 2,114l22 0c2,32 -20,56 -17,84 18,-1 24,-14 46,-8 5,21 -10,48 -5,62 1,1 2,0 3,1 0,1 1,1 2,1 14,5 11,0 19,6 25,15 18,52 25,73l46 -2c1,16 -74,128 -86,166 -10,-8 0,-6 -11,-12 -16,7 -17,17 -35,20l0 -41c-18,-6 -22,14 -48,15l2 -39c-16,2 -19,11 -35,14 1,-16 9,-18 8,-35 -16,2 -15,11 -29,13 1,-21 13,-33 13,-56 -17,2 -12,9 -27,11 -3,-24 7,-33 7,-58 -19,-1 -5,10 -22,6 -5,-24 6,-58 -9,-64l-5 -1c-1,0 -2,0 -2,-1l3 -34c-17,8 -23,10 -31,23 12,47 -10,44 -14,76 9,9 15,3 18,15 3,8 -4,14 -3,26l17 1 -6 31c23,15 18,14 13,39 8,3 9,0 19,5 3,14 0,14 -2,26 17,20 31,11 29,49 40,-3 25,12 41,37l-115 0c-36,-68 -11,-30 -60,-102 -21,-30 -54,-58 -88,-74 -34,-16 -85,-32 -124,-39 -22,-4 -48,-8 -70,-11 -16,-3 -65,-6 -73,-9 4,-17 12,-5 13,-24 1,-9 -8,-3 15,-21 50,-41 61,-58 130,-105 48,-33 95,-61 147,-89 12,-6 17,-5 32,-3 19,2 15,7 14,26l13 13 47 -21c-3,-8 -14,-11 -22,-28l3 -3c12,-10 9,-7 9,-17 -10,-6 -11,-2 -19,-5 11,-12 188,-96 213,-102 -5,17 -19,31 -26,46zm1870 -95c20,2 90,29 115,41 22,11 2,2 13,14 4,4 15,12 17,15 12,16 0,13 -4,21 5,6 13,15 16,25l-26 3c-3,25 5,4 15,32 -9,9 -17,6 -25,16 7,9 24,14 36,16l-11 16c-16,-3 -27,-16 -40,-26l-80 -52c-12,-7 -33,-15 -38,-30l28 4c2,-30 -14,-25 -16,-42 9,-7 18,-6 30,-6 -3,-22 -18,-29 -30,-47zm-306 0c43,13 108,42 152,60 16,7 36,18 51,22 -3,12 -3,7 -7,15 11,11 15,22 18,41 -8,1 -13,-4 -21,-6 -15,-3 -13,-4 -23,-8 6,15 5,10 30,23 15,8 25,9 29,26 -9,14 -23,17 -44,21 0,0 -1,6 -1,6l-2 4c-1,1 -1,2 -1,2 -6,18 16,17 14,44l-29 -1c2,11 12,23 1,32 -11,10 -35,-19 -53,-34 -11,-9 -4,-7 -17,-16 -17,-12 -62,-45 -64,-67l14 10c1,-15 -3,-30 -8,-40 -6,-16 -15,-19 -19,-30l23 9c-5,-28 -28,-51 -32,-58 10,5 9,6 21,10l-7 -32c1,-3 2,3 2,-8 -11,-6 -9,1 -17,-8 -2,-2 -7,-13 -10,-17zm-1548 27c1,0 10,-2 10,-2l8 2c-1,17 -18,18 -49,30 -61,24 -108,50 -164,74l-4 -10c-8,-14 -26,-1 -33,-9 -6,-17 41,-32 28,-59 38,-8 210,-79 232,-82l-28 56zm-324 -38c11,5 13,3 21,13 -4,13 -6,3 -10,17 9,4 15,2 23,8 -9,10 -12,6 -20,14 6,17 14,16 -1,36 -7,10 -23,14 -34,19 -24,12 -49,24 -73,37 -24,12 -46,25 -71,38 -35,19 -31,26 -83,28 8,-21 56,-36 68,-66l-31 3c5,-24 37,-31 39,-52l-27 -1c4,-12 21,-21 31,-30 -7,-9 -11,-4 -21,-14 13,-35 71,-52 100,-64 15,-6 77,-33 93,-28 12,5 17,12 15,27 -5,3 -6,3 -11,6 -11,6 -4,-2 -8,9zm1841 -62c26,0 288,46 302,69 -6,17 -30,12 -48,23l-1 11c8,6 19,4 32,28 -41,2 -14,11 -68,-15 -38,-18 -92,-38 -133,-49 -16,-5 -63,-14 -73,-20 6,-4 14,0 20,0 -2,-9 -5,-14 -12,-21 9,-30 -1,6 -19,-26zm-1723 95c9,-9 22,-24 25,-40 -20,2 -29,8 -51,7 8,-20 30,-24 38,-44 -12,-5 -19,-10 -23,-19 7,-3 8,0 15,-3 24,-9 -17,-9 47,-22 60,-12 178,-31 236,-32 -2,7 -37,72 -40,75 -5,5 -68,24 -83,29l-123 46c-16,6 -25,13 -41,3zm773 -350c-1,-28 24,-37 53,-34 22,2 41,19 60,27 60,27 58,29 134,42 98,16 163,-66 213,-31 18,13 38,25 27,57 -16,-16 -8,-28 -40,-41 -36,-15 -92,14 -87,69 4,43 21,43 24,62 -19,4 -39,-1 -52,4 -13,4 -22,16 -35,21 -13,5 -29,9 -42,14 -51,20 -15,25 -72,-6 -76,-41 -72,-17 -141,-22 23,-16 24,-4 40,-36 38,-77 -22,-146 -82,-126zm66 -91c54,3 58,21 114,-1 94,-37 131,21 221,19 50,-1 82,-3 79,54 -3,-3 -2,-2 -4,-7l-7 -17c-12,-23 -50,-23 -72,-21 -35,4 -75,-12 -108,-18 -137,-27 -128,33 -213,-3 -6,-2 -4,-1 -6,-3 -1,0 -2,0 -2,-1 0,-1 -1,-1 -2,-2zm876 0c25,0 32,-8 40,-8 3,0 4,0 5,1l8 -1c8,-3 14,-11 36,-7l8 15c-9,12 -7,0 -10,15 7,10 1,3 12,8 2,19 -8,20 -9,35 13,1 19,-1 29,3 3,10 -1,16 4,30 21,9 39,0 46,19 -6,12 0,3 -7,8l-9 6c8,10 19,11 29,16 19,10 12,13 8,29 38,34 8,20 19,46 8,18 4,12 2,29l31 20c-8,16 -14,9 -22,27l26 -3c11,19 14,17 33,27 -4,14 -13,4 -12,24 8,7 5,6 18,5 -9,20 20,5 17,29 -2,19 -25,9 -38,6 -71,-18 -165,-35 -239,-41 -22,-1 -34,1 -38,-18 7,-3 13,-1 19,-5 -10,-12 -56,-45 -65,-56l16 -6 -36 -34c7,-8 13,-2 16,-14 -22,-11 -5,7 -19,-16 -10,-14 -42,-19 -7,-45l14 -13c15,-11 30,-19 36,-35 -12,3 -21,8 -31,11 -8,3 -22,5 -31,4l-10 -4c13,-9 41,-13 47,-33 -10,4 -24,14 -34,8 -9,-9 3,-15 14,-22 44,-31 39,-56 53,-77l14 10c10,-12 5,-15 24,-19 -2,17 -6,13 -7,26zm-221 -99c14,-12 40,5 46,16 8,17 4,45 -11,52 -8,4 -23,5 -33,4 -15,0 -17,-2 -18,-17 -2,-22 3,-45 16,-55zm-746 52c35,-8 38,2 68,13 10,3 17,1 22,10l-76 20c-1,7 -82,25 -97,31 6,6 11,6 19,10 -8,23 -72,44 -86,62 1,1 4,2 4,2 4,2 4,2 7,3 -5,20 -21,38 -20,53 7,-1 18,-14 24,-19 10,-8 21,-11 29,-17l-12 -15 24 -9c0,-10 -3,-9 9,-16 19,-11 58,-18 81,-18 2,86 3,44 -6,127 -12,102 67,89 115,94 20,2 43,8 59,14 52,21 54,42 85,60 24,-12 9,-37 86,-59l42 -9c12,-2 2,-2 13,-5 20,-5 41,1 66,-7 55,-17 91,-65 91,-123 0,-23 -6,-42 0,-60 17,1 18,8 31,14 10,5 23,6 32,12 2,12 -1,10 -7,16 13,1 48,2 57,8 0,11 -9,12 -18,18 7,5 5,3 15,4 0,2 -1,5 -1,6l21 5c-8,16 -19,11 -29,22 10,12 30,8 35,22l-20 11c52,36 73,10 46,3 16,-18 -11,-24 -17,-39l18 -11c-4,-11 -3,-5 -8,-14 -6,-12 1,-25 -47,-53 -5,-3 -11,-7 -14,-9 -8,-4 -9,-1 -15,-6 4,-3 -1,0 6,-3l11 -5 -11 -5c-3,-1 -9,-3 -13,-4 -12,-1 -20,1 -32,-1 0,-13 3,1 10,-12 -48,-6 -15,-20 -44,-38 -15,-9 -9,-2 -43,-24 -12,-9 -46,-31 -52,-39l16 -6c50,-12 29,2 29,13 21,9 41,-1 63,6l5 2c0,1 1,1 2,1l-22 12c3,3 0,1 5,4 7,4 16,5 24,6 27,4 14,1 21,18l26 6c-4,6 -8,6 -14,12 14,9 42,1 58,10 -5,13 -5,-4 -7,13l38 19 -15 4 42 16c4,14 -2,10 2,18l24 29c6,4 11,8 17,12 22,17 -2,15 24,29 22,11 21,15 33,23 0,1 -1,1 -1,2 -2,14 -9,8 14,21 20,12 18,11 17,25 17,4 24,11 33,20 17,16 20,11 15,36 7,3 4,1 10,7 9,9 22,16 27,28 -9,1 -11,0 -18,-1l-13 1c-1,0 -2,0 -2,0 16,12 22,8 33,28l-20 0c4,4 -3,-1 7,5 12,6 19,4 24,15 -8,6 -24,-2 -33,3 11,13 40,13 46,34 -9,5 -21,2 -31,3 11,23 49,29 53,67l-44 -9c9,18 16,13 24,37 4,11 10,7 11,22 -6,4 -4,3 -12,5 -3,0 -6,0 -8,1l-7 2c0,0 -1,1 -2,1 28,20 42,21 41,54 -22,-6 -24,-5 -45,2 1,17 14,18 20,36 -4,14 -10,19 -18,25 -11,-1 -30,-10 -44,-13 0,17 28,23 26,59 -7,0 -22,-17 -39,-22 7,21 19,44 3,71 -25,2 -10,-13 -32,-19 0,11 -1,24 -8,31 -20,-37 -115,-178 -140,-195 22,24 97,147 123,185 11,17 16,19 4,29 -11,-3 -8,-10 -15,-20 -7,-10 -11,-17 -21,-20 0,27 -1,36 -17,49 -8,-7 -3,-3 -7,-12 -7,-14 -1,-5 -11,-12 -12,-9 -39,-71 -47,-85 -15,-30 -48,-94 -64,-111 6,17 18,37 27,53l51 106c6,13 24,48 1,54 -9,-19 -6,-34 -23,-41 -9,9 -5,25 -14,35 -12,-5 -13,-23 -22,-34 -11,3 -8,8 -17,15 -15,-10 -18,-41 -24,-62 -14,-52 -53,-140 -88,-172 7,29 79,157 83,220 -15,-11 -21,-35 -35,-46l-11 17c-12,-6 -20,-26 -30,-36 -13,-13 -25,-15 -35,-29l-7 17c-14,-7 -13,-24 -21,-35 -1,1 -1,1 -1,2 0,1 -1,2 -1,2 0,1 -1,4 -2,5 -2,5 1,1 -4,8 -5,-6 -20,-43 -23,-50 -7,3 0,0 -5,4 -8,6 3,1 -6,5l-6 -6c0,0 -1,-1 -1,-1 -1,-1 -1,-1 -2,-2 -3,-3 -5,-8 -7,-12l-4 3c0,1 -1,1 -1,2l-7 9c-7,-8 -9,-7 -15,-18 -7,-12 -7,-16 -16,-21l-10 14c-17,-16 -17,-35 -32,-45 -1,1 -1,1 -2,2l-9 10c-14,-6 -17,-22 -28,-34 0,0 -5,-9 9,-1 -16,-10 -15,-29 -39,-47 -11,-9 -5,-11 -18,-13 -12,6 -11,16 -20,25 -2,-5 0,-1 -2,-6l-2 -7c-1,0 -1,-1 -1,-2 -11,10 -38,66 -42,71 -5,8 -11,15 -20,21 0,-12 2,-12 -3,-22 -7,3 -1,-2 -8,7 0,0 -4,8 -4,9 -4,8 -8,14 -12,19 -9,10 -23,22 -35,28l-3 -13c-6,12 -30,48 -44,48 -7,1 -7,-1 -12,-4 -9,-6 1,-3 -11,-7 -13,14 -18,37 -33,49 -25,23 -18,-3 -48,31l-28 26c-4,-8 1,-8 -6,-18 -13,1 -20,12 -30,20l-6 -12c-13,9 -27,24 -40,32 3,-49 24,-89 29,-131 -19,19 -35,93 -40,116 -5,4 -7,3 -13,6 -7,4 -5,5 -12,9 3,-23 31,-115 28,-122 -10,14 -29,67 -36,88 -3,8 -4,14 -8,23 -4,12 -5,10 -13,17 -9,9 -24,29 -32,32l0 -22c-16,5 -21,17 -31,29 -7,-7 -6,-19 -7,-30 -20,-6 -24,7 -39,13l0 -22 -24 14c13,-63 125,-185 148,-226 -40,24 -146,193 -157,199 -5,3 -11,3 -20,6 -8,3 -9,6 -19,8l14 -29c-13,0 -15,6 -26,6 1,-23 -4,-31 -4,-51 -16,2 -24,8 -38,11 4,-18 15,-41 15,-54 -18,-2 -15,4 -25,11 -12,-19 -3,-23 -6,-45 -17,4 -16,11 -28,16 -3,-29 19,-55 13,-73 -12,1 -14,8 -21,15 -3,-25 -10,-26 2,-47 8,-15 17,-26 18,-46 -12,2 -13,6 -24,10 4,-16 2,-22 11,-35 24,-36 2,-29 53,-46l-50 15c5,-28 20,-47 32,-67 9,-16 6,-14 24,-23 12,-5 23,-11 33,-15 -10,-6 -27,4 -37,5 9,-20 47,-75 60,-88 -2,-10 -3,-1 -7,-10 21,-26 56,-49 84,-70 12,-8 18,-17 27,-26 -3,-7 -5,-4 -8,-12 28,-20 8,-8 38,-17 46,-14 27,-16 24,-21 17,-9 21,-6 34,-11 -1,-1 -2,-2 -2,-1l-9 -3c-5,0 -8,2 -14,3 14,-25 33,-20 50,-22 -1,-11 -10,-9 -2,-16 11,-9 24,-1 35,-3 8,-2 6,-1 10,-5l-24 -5c6,-15 17,-14 31,-15 1,-1 1,-2 1,-2l2 -4c14,-27 48,-14 70,-28 -6,-4 -18,-3 -25,-6 4,-9 12,-9 23,-13 16,-7 18,-3 36,-4l0 -11zm-280 -59c12,27 27,84 -17,71 -13,-4 1,1 -11,-7 -11,-7 -13,-4 -20,-17 -4,-11 -3,1 3,-24 5,-24 18,-26 45,-23zm-77 213c-4,9 -27,19 -38,23 -13,4 -41,7 -47,14 9,4 25,1 33,11 -6,4 -9,3 -16,1 6,17 61,13 81,14 -18,10 -73,62 -86,79 -36,47 -7,30 -100,32 -64,2 -144,15 -205,28l-1 -4c-2,-5 1,-2 -3,-6 -5,-3 -29,-7 -37,-26 11,-1 31,-1 37,-11 11,-19 -17,-14 -28,-16 7,-13 13,-7 27,-13 2,-20 -7,-25 28,-39 11,-4 11,-3 15,-13 -8,-3 -34,-13 -39,-18 4,-8 7,-10 26,-14 13,-3 24,-1 37,-3 -1,-23 -25,-26 -28,-47 17,-13 29,4 42,-20 9,-14 20,-19 31,-31 -10,-12 -18,-6 -26,-22 6,-10 20,-13 30,-19 20,-12 20,2 44,0 31,-42 34,5 87,-33 22,-16 7,-23 16,-44 2,-5 10,-13 13,-17 2,-3 3,-5 6,-8 7,-8 1,-4 10,-9 -4,24 -12,26 -12,71 -1,62 3,91 41,125 7,6 15,13 26,15 17,4 26,-2 36,0zm-471 -226c18,7 39,33 53,34 -6,-17 -26,-36 -29,-56 28,-3 60,38 60,63 -16,8 -24,4 -43,4 1,17 17,14 19,33 -16,2 -26,-2 -40,-4 6,16 17,12 18,29 -11,4 -24,2 -36,1 4,13 5,10 13,18 7,7 9,9 8,20 -12,5 -32,1 -45,2 10,17 15,3 22,25l-27 -1c4,6 13,12 20,19 6,7 15,12 16,22 -11,5 -22,1 -35,-1 4,20 22,23 27,38l-23 -1c10,20 11,2 6,29 5,5 10,8 14,17 -10,7 -21,6 -28,14 6,11 11,5 14,19 -10,9 -11,5 -20,11 -6,3 -2,0 -6,5 8,3 26,4 33,12 5,17 -12,18 -23,28 0,1 1,1 2,1l4 2c8,2 10,1 18,6 -1,13 -10,15 -17,25l10 6c-8,14 -11,12 -4,30 -6,5 -5,2 -9,7 -5,6 4,0 -5,5l-154 55c-15,-16 0,-5 -21,-13 4,-16 37,-23 57,-52l-17 -7c5,-12 15,-12 31,-20 2,-28 -19,-24 -2,-47 23,-31 12,-15 2,-37 3,-9 9,-13 11,-18 6,-17 1,-6 -4,-17 14,-7 38,-6 46,-15 -8,-10 -25,-16 -36,-23 -11,-7 -7,-6 -10,-19 -4,-14 -7,-7 -12,-17 10,-15 34,-15 42,-28 -14,-13 -27,-5 -38,-14 13,-12 36,-9 44,-25 -9,-12 -25,-12 -37,-23 7,-11 14,-4 29,-17 -6,-10 -6,-2 -9,-14l49 -8c-2,-15 -33,-24 -36,-41l33 0c-3,-11 -5,-8 -8,-18 13,5 19,12 36,15 -6,-18 -28,-34 -25,-50 52,13 60,27 76,34 -1,-17 -11,-25 -14,-43zm1715 129c4,-37 10,-68 -9,-97 -13,-19 -36,-40 -59,-52 53,-3 88,62 86,103 0,10 -2,18 -5,26 -4,8 -7,15 -13,20zm-1611 -146c9,6 8,2 11,11 -15,13 -24,0 -36,-5 -8,-4 -25,1 -21,-28 13,-1 22,6 32,14 5,3 8,5 14,8zm281 100c0,-30 4,-69 24,-90 13,-14 56,-32 83,-31 -12,19 -56,27 -73,43 -12,12 -18,38 -25,60 -1,4 -2,6 -3,10 -4,7 -1,3 -6,8zm321 -29c-1,-14 4,-47 -7,-57 -9,22 -21,79 -50,93 1,-7 6,-18 9,-25 1,-2 4,-13 4,-14 1,-9 0,-11 -3,-14 -4,21 -29,71 -41,84 -6,-8 17,-81 16,-105 -9,18 -5,61 -37,80 10,-77 1,-95 -41,-134 -37,-34 -69,-53 -129,-50 15,-24 75,-27 91,-30 5,-17 -23,-26 -27,-45 18,-15 60,-12 87,-10 42,3 45,28 64,31 0,-20 -17,-28 -20,-47 17,4 31,14 44,16 23,4 16,-22 16,-41 23,11 22,21 51,14 8,15 31,31 43,78 8,35 -5,66 -15,96l-4 -9c-2,-7 -1,-11 -5,-18 -9,7 -18,38 -23,54 -8,24 -15,34 -23,53zm707 -248c15,-8 19,-33 39,-35l-14 47c12,-6 14,-12 26,-18 11,-5 17,-5 24,-12 -1,14 -13,17 -15,31 22,-1 32,-20 58,-22 -4,14 -11,14 -15,29 27,-4 36,-8 62,-1 10,3 44,5 54,15 -36,30 -78,31 -83,73l33 -14c-4,15 -18,16 -26,30 23,-5 88,-56 130,-13 -55,-2 -98,-2 -115,44 10,-2 14,-5 23,-9 -11,25 -31,16 -51,60 -13,30 -13,63 -11,98 -32,-21 -24,-63 -29,-75 -5,10 -2,28 -11,41 -7,-11 -17,-52 -24,-69 -6,12 -2,22 -10,33 -7,-5 -9,-11 -13,-18 -4,-8 -7,-13 -11,-20 -19,-33 -8,-28 -18,-44 -8,10 -2,16 -11,25 -3,-7 -2,-11 -3,-18l-5 -16 -9 25c-19,-29 -25,-82 -25,-83 0,1 -1,2 -1,2 -5,13 -2,16 -7,25 -22,-21 -11,-66 -10,-99 -13,4 -12,7 -20,15 0,-9 13,-42 24,-46l8 22c6,-4 11,-10 15,-17 21,-35 5,-2 16,14 11,-5 15,-17 26,-27 3,6 -1,16 -1,27zm613 -8c50,-4 15,-25 98,-36 -5,19 -16,18 -18,35 18,2 34,-3 49,-6l-8 23c12,5 10,8 25,4 3,19 -27,28 -2,44 29,19 10,24 5,48 -5,28 20,21 4,56 -18,39 -15,20 -30,39 12,6 13,-7 27,0 -2,19 -33,30 -39,47l49 -18c-5,15 -24,15 -32,34 14,-1 36,-10 44,-7l-20 19 23 6c-4,18 -50,32 -49,55 27,3 42,5 68,3 -11,20 -37,27 -49,43 24,-4 50,-23 71,-7 -2,20 -38,29 -45,47 25,1 54,-4 64,2 -8,14 -17,9 -24,24 -11,22 -5,16 -21,30 13,9 4,10 23,15 -8,8 -11,4 -13,13 -2,11 2,8 8,16 -3,5 -6,13 -9,18 -8,11 -11,4 -14,19 3,2 1,1 7,2 12,2 15,-1 26,-3 -3,13 -9,18 -15,26 12,10 22,5 22,25 -15,17 -20,0 -27,22l18 5c1,0 2,1 2,1 -2,17 -8,13 -8,24l22 6c-1,16 -12,21 -24,25l8 8c0,1 6,5 8,6 36,24 -17,23 -5,50 -2,0 -52,-20 -56,-22 -6,-4 -4,-5 -9,-11 -3,-5 -8,-8 -11,-12 -31,-29 -11,-29 7,-45 -3,-12 -19,-22 -28,-32 11,-29 14,-7 -11,-36 16,-28 -6,-21 -20,-31 42,-34 6,-32 -13,-48 11,-19 33,-15 -10,-44 -3,-28 7,-15 13,-34 -16,-24 -40,-20 -9,-39l6 -3c-15,-11 -27,-12 -41,-19 0,-22 8,-16 22,-23 -10,-18 -36,-14 -51,-26 0,-14 4,-8 9,-20 -12,-4 -39,-20 -43,-30l24 -15c-2,-17 -10,-23 -3,-42 19,1 23,30 50,-6 9,69 62,28 73,-82 3,-32 11,-84 -11,-107l-22 -24c-16,4 -11,12 -30,19 -1,0 -2,-2 -2,-1 0,0 -1,-1 -2,-2 0,0 -1,-1 -1,-1l-7 -9c-16,2 -14,8 -29,14 -17,7 -14,4 -24,18 -9,11 -34,38 -51,37 -15,-48 16,-62 46,-98 4,-4 8,-9 12,-14 8,-10 5,-8 14,-13l-11 38zm-2059 -94c7,-5 32,-6 43,-2 17,5 15,16 28,22l-2 -21c13,6 13,24 27,30l-1 -28c12,2 26,9 39,14 13,5 19,15 23,28l6 -16c23,2 60,66 68,83 24,-13 39,27 45,53l-14 3c22,26 -10,36 -28,-1 -1,16 10,46 1,57 -8,6 -11,3 -16,-5 -4,-5 -6,-11 -8,-18 -4,-15 -6,-23 -14,-36 -6,-11 -15,-21 -23,-31 -5,-6 -16,-26 -27,-15 -7,8 1,11 4,21 -13,-5 -26,-24 -39,-36l-41 -37 9 40c-19,-8 -33,-32 -58,-35 8,48 -3,25 -24,32 -17,6 11,25 -3,45 -17,10 -28,-13 -48,-15 2,19 13,28 11,51 -19,-1 -11,-13 -38,-2 1,17 19,33 15,57 -15,-6 -25,-37 -30,-53 -12,-41 26,-114 41,-143l22 1c-8,-44 22,-21 41,-16 -6,-14 -11,-7 -9,-27zm-266 906c4,10 9,9 17,14 0,32 -33,29 -37,48l29 7c-1,28 -40,39 -59,57 -3,15 1,32 -5,44 -6,15 -15,10 -23,21 5,7 9,8 15,14l-18 16c11,-7 19,-18 35,-13 4,14 2,22 -6,31 -6,6 -5,4 -11,8 -13,9 -7,1 -11,13 9,2 20,2 28,7 -1,21 -20,17 -30,30 8,12 21,5 36,10 5,23 -7,28 -19,38l5 16c-31,3 -64,7 -92,15 -48,13 -148,107 -171,140 -22,32 -30,23 -60,43 -31,20 -34,30 -74,30 -69,0 -138,0 -208,0l2 54 160 1c-10,28 -8,36 11,61 12,14 35,25 56,28 -13,92 -130,156 -73,199 33,25 92,4 112,-11 14,-10 27,-30 44,-32 22,-2 37,13 45,28 20,38 -27,74 -13,124 8,29 6,32 31,44 22,11 30,18 56,10 59,-16 77,-73 107,-118 5,-7 43,-39 48,-10 1,1 1,2 1,3 4,33 -13,88 20,108 30,18 65,35 103,10 64,-42 59,-160 97,-180 25,-14 26,-18 43,0 5,5 32,26 41,29 42,18 76,-16 85,-47 16,-51 11,-191 21,-225l9 -12c3,-2 1,-4 6,-4 21,-4 1607,1 1945,0 47,0 23,1 52,9 3,42 7,83 11,125 4,42 -2,86 15,120 15,29 55,54 93,27 20,-14 25,-22 36,-31 10,-7 34,6 44,14 13,12 29,76 37,100 16,51 58,103 113,86 94,-30 48,-77 63,-139 41,-17 62,41 77,66 19,30 35,58 79,70 25,6 39,-2 57,-12 22,-12 22,-19 30,-47 11,-43 -33,-81 -15,-118 7,-15 23,-31 45,-30 14,1 34,24 44,32 23,18 92,38 118,6 11,-15 10,-33 3,-49 -8,-17 -72,-84 -82,-145 22,-3 44,-13 56,-28 18,-22 23,-31 11,-61l156 -1 0 -53c-39,-6 -159,-1 -210,-1 -30,1 -30,-7 -49,-19 -15,-11 -27,-18 -44,-26 -25,-10 -23,-16 -36,-34 -46,-59 -102,-88 -123,-112 -58,-68 -128,-132 -197,-190 -12,-11 -10,-6 -14,-20 -5,-18 -8,-6 -12,-24 12,0 22,3 32,-1 17,-16 -30,-39 -36,-45 6,-5 11,-5 19,-8 5,-2 4,-2 6,-3 -17,-13 -29,-18 -46,-27 5,-5 12,-5 20,-5 33,1 25,-2 32,-28 -6,-4 -31,-13 -33,-19 10,-4 116,74 136,81 -7,-13 -55,-49 -71,-60l-79 -52c5,-8 12,-14 12,-30 -11,-10 -14,-5 -27,-11 2,-16 11,-10 8,-23 -2,-12 -11,-6 -18,-13 -6,-6 -2,-16 -2,-24 1,-16 -6,-12 -8,-22 7,-3 23,-5 28,-11 -9,-8 -32,-8 -40,-14 5,-11 7,-8 12,-17 -6,-9 -4,-2 -14,-9l6 -25c-9,-6 -7,-1 -16,-5 3,-12 14,-17 21,-31 -1,-1 -2,-1 -2,-1l-16 -5 14 -31c-4,-4 -10,-4 -11,-7 0,-1 -1,0 -2,-1 8,-13 11,-5 18,-17 -1,-17 -10,-8 -5,-24 3,-11 6,-1 6,-19l-25 0c10,-21 24,-15 27,-38 -2,-16 -32,-27 -42,-31 6,-15 24,-10 27,-28 -8,-9 -21,-9 -35,-20l4 -16c-32,-14 -22,-15 -16,-47 2,-11 -1,-7 -4,-15 -7,-16 3,-13 -12,-32 -33,-44 -24,-8 -12,-99 8,-62 -7,-151 -53,-189 -39,-32 -81,-25 -138,-21 -26,1 -48,4 -76,4 -38,0 -38,1 -64,-16 21,-17 -13,-6 -26,-11l-31 -8c8,-60 0,0 -36,-7 -62,-3 -119,-28 -179,-41 -56,-13 -117,-34 -171,-52 -65,-21 -120,-21 -193,-27 -57,-5 -145,-23 -198,-12 -66,12 -139,9 -206,3 -59,-5 -137,18 -193,26 -66,10 -120,19 -186,36 -31,8 -57,17 -86,23 -69,13 -50,-2 -92,-10 5,17 9,19 7,38 -16,-3 -60,-51 -85,-55 12,11 31,41 32,63 -16,-3 -42,-33 -65,-39 6,12 17,18 21,28 5,12 0,15 -4,25l-2 8c-19,-11 -37,-28 -61,-36 -25,-9 -50,-18 -82,-17 -63,2 -108,23 -136,58 -45,56 -69,153 -49,228 5,20 20,57 19,77l-9 5c3,7 17,35 17,39l-33 -9c2,9 6,13 10,20 -3,10 1,2 -10,8 3,7 -1,3 6,9l-4 2c-6,3 -5,1 -8,6 4,9 8,12 9,23 -9,7 -11,6 -18,16 11,19 17,11 2,35 -13,20 -6,13 -28,22 1,15 7,8 8,21 2,18 -1,6 6,23 10,24 -13,29 7,45 -8,7 -9,5 -13,14 8,16 14,5 20,20 -6,15 -24,15 -33,26 -16,21 5,32 10,42 -11,5 -22,12 -25,25 -6,31 -3,13 -23,27l14 3c4,1 9,0 14,0 -5,15 -20,23 -33,31 -16,10 -8,9 -16,18 -6,6 -13,5 -20,10l12 7c1,0 2,1 3,1 0,-1 1,0 2,0 -6,18 -21,16 -36,26 6,11 16,7 21,16 -8,8 -123,61 -145,72 21,3 128,-49 146,-48 5,26 -19,26 -32,38z"/>
 </g>
</svg>
